<svg width="71" height="71" viewBox="0 0 71 71" fill="none" xmlns="http://www.w3.org/2000/svg">
<rect x="48.3433" y="7.18152" width="19.8601" height="23.1701" rx="6.25993" transform="rotate(42.7275 48.3433 7.18152)" fill="url(#paint0_linear_1_5108)"/>
<g filter="url(#filter0_b_1_5108)">
<mask id="path-2-inside-1_1_5108" fill="white">
<path d="M39.3598 16.9075C40.6002 15.5646 42.6943 15.4815 44.0372 16.7219L53.7632 25.7055C55.1061 26.9458 55.1892 29.04 53.9488 30.3828L34.98 50.9194C34.1659 51.8008 33.1275 52.4443 31.976 52.7813L26.3266 54.4342L17.5732 46.3491L18.773 40.5862C19.0176 39.4115 19.5769 38.3254 20.391 37.4441L39.3598 16.9075Z"/>
</mask>
<path d="M39.3598 16.9075C40.6002 15.5646 42.6943 15.4815 44.0372 16.7219L53.7632 25.7055C55.1061 26.9458 55.1892 29.04 53.9488 30.3828L34.98 50.9194C34.1659 51.8008 33.1275 52.4443 31.976 52.7813L26.3266 54.4342L17.5732 46.3491L18.773 40.5862C19.0176 39.4115 19.5769 38.3254 20.391 37.4441L39.3598 16.9075Z" fill="#6AE092" fill-opacity="0.6"/>
<path d="M44.0372 16.7219L43.8382 16.9373L43.8382 16.9373L44.0372 16.7219ZM39.3598 16.9075L39.1444 16.7086L39.1444 16.7086L39.3598 16.9075ZM53.7632 25.7055L53.5642 25.9209L53.5642 25.9209L53.7632 25.7055ZM53.9488 30.3828L54.1642 30.5818L54.1642 30.5818L53.9488 30.3828ZM34.98 50.9194L34.7646 50.7204L34.7646 50.7204L34.98 50.9194ZM31.976 52.7813L32.0583 53.0627L32.0583 53.0627L31.976 52.7813ZM26.3266 54.4342L26.1276 54.6496L26.2496 54.7623L26.4089 54.7156L26.3266 54.4342ZM17.5732 46.3491L17.2862 46.2893L17.2523 46.4518L17.3743 46.5645L17.5732 46.3491ZM18.773 40.5862L18.4859 40.5264L18.4859 40.5264L18.773 40.5862ZM20.391 37.4441L20.1756 37.2451L20.1756 37.2451L20.391 37.4441ZM44.2362 16.5065C42.7743 15.1563 40.4947 15.2467 39.1444 16.7086L39.5752 17.1065C40.7057 15.8826 42.6143 15.8068 43.8382 16.9373L44.2362 16.5065ZM53.9622 25.4901L44.2362 16.5065L43.8382 16.9373L53.5642 25.9209L53.9622 25.4901ZM54.1642 30.5818C55.5145 29.12 55.424 26.8403 53.9622 25.4901L53.5642 25.9209C54.7882 27.0514 54.8639 28.96 53.7334 30.1839L54.1642 30.5818ZM35.1954 51.1183L54.1642 30.5818L53.7334 30.1839L34.7646 50.7204L35.1954 51.1183ZM32.0583 53.0627C33.2609 52.7108 34.3452 52.0388 35.1954 51.1183L34.7646 50.7204C33.9865 51.5628 32.9942 52.1778 31.8936 52.4998L32.0583 53.0627ZM26.4089 54.7156L32.0583 53.0627L31.8936 52.4998L26.2442 54.1528L26.4089 54.7156ZM26.5255 54.2188L17.7722 46.1337L17.3743 46.5645L26.1276 54.6496L26.5255 54.2188ZM20.1756 37.2451C19.3254 38.1655 18.7414 39.2997 18.4859 40.5264L19.0601 40.6459C19.2939 39.5233 19.8284 38.4854 20.6064 37.643L20.1756 37.2451ZM39.1444 16.7086L20.1756 37.2451L20.6064 37.643L39.5752 17.1065L39.1444 16.7086ZM17.8603 46.4088L19.0601 40.6459L18.4859 40.5264L17.2862 46.2893L17.8603 46.4088Z" fill="url(#paint1_linear_1_5108)" mask="url(#path-2-inside-1_1_5108)"/>
</g>
<g filter="url(#filter1_b_1_5108)">
<rect width="13.2401" height="3.31002" rx="1.65501" transform="matrix(-0.734589 -0.678512 -0.678513 0.734589 51.5173 28.1369)" fill="url(#paint2_linear_1_5108)" fill-opacity="0.9"/>
<rect x="-0.165749" y="0.00657745" width="13.0055" height="3.07543" rx="1.53771" transform="matrix(-0.734589 -0.678512 -0.678513 0.734589 51.2342 28.0262)" stroke="url(#paint3_linear_1_5108)" stroke-width="0.234589"/>
</g>
<path d="M26.3266 54.4342L17.5732 46.349L15.7746 54.9857C15.5199 56.2088 16.6605 57.2624 17.8596 56.9115L26.3266 54.4342Z" fill="url(#paint4_linear_1_5108)"/>
<defs>
<filter id="filter0_b_1_5108" x="11.3133" y="9.58346" width="49.7739" height="51.1107" filterUnits="userSpaceOnUse" color-interpolation-filters="sRGB">
<feFlood flood-opacity="0" result="BackgroundImageFix"/>
<feGaussianBlur in="BackgroundImageFix" stdDeviation="3.12996"/>
<feComposite in2="SourceAlpha" operator="in" result="effect1_backgroundBlur_1_5108"/>
<feBlend mode="normal" in="SourceGraphic" in2="effect1_backgroundBlur_1_5108" result="shape"/>
</filter>
<filter id="filter1_b_1_5108" x="27.7092" y="7.31718" width="35.6443" height="35.0874" filterUnits="userSpaceOnUse" color-interpolation-filters="sRGB">
<feFlood flood-opacity="0" result="BackgroundImageFix"/>
<feGaussianBlur in="BackgroundImageFix" stdDeviation="6.25993"/>
<feComposite in2="SourceAlpha" operator="in" result="effect1_backgroundBlur_1_5108"/>
<feBlend mode="normal" in="SourceGraphic" in2="effect1_backgroundBlur_1_5108" result="shape"/>
</filter>
<linearGradient id="paint0_linear_1_5108" x1="54.0721" y1="12.25" x2="69.7505" y2="16.8714" gradientUnits="userSpaceOnUse">
<stop stop-color="#349256"/>
<stop offset="1" stop-color="#75EDA1"/>
</linearGradient>
<linearGradient id="paint1_linear_1_5108" x1="14.0616" y1="16.5133" x2="40.9945" y2="52.8188" gradientUnits="userSpaceOnUse">
<stop stop-color="white"/>
<stop offset="0.765625" stop-color="white" stop-opacity="0"/>
</linearGradient>
<linearGradient id="paint2_linear_1_5108" x1="13.4929" y1="1.84565" x2="-5.61757" y2="1.35893" gradientUnits="userSpaceOnUse">
<stop stop-color="#FCFDFE"/>
<stop offset="1" stop-color="#FCFDFE" stop-opacity="0"/>
</linearGradient>
<linearGradient id="paint3_linear_1_5108" x1="13.095" y1="2.27646" x2="6.62003" y2="3.31002" gradientUnits="userSpaceOnUse">
<stop stop-color="white"/>
<stop offset="1" stop-color="white" stop-opacity="0"/>
</linearGradient>
<linearGradient id="paint4_linear_1_5108" x1="18.8562" y1="50.026" x2="22.1742" y2="58.5881" gradientUnits="userSpaceOnUse">
<stop stop-color="#75EDA1"/>
<stop offset="1" stop-color="#349256"/>
</linearGradient>
</defs>
</svg>
