<svg width="72" height="71" viewBox="0 0 72 71" fill="none" xmlns="http://www.w3.org/2000/svg">
<path fill-rule="evenodd" clip-rule="evenodd" d="M21.6072 15.4958C22.8288 15.4958 23.819 16.486 23.819 17.7076L23.819 53.0964C23.819 54.3179 22.8288 55.3082 21.6072 55.3082C20.3857 55.3082 19.3954 54.3179 19.3954 53.0964L19.3954 17.7076C19.3954 16.486 20.3857 15.4958 21.6072 15.4958Z" fill="url(#paint0_linear_1_5391)"/>
<path fill-rule="evenodd" clip-rule="evenodd" d="M36.3527 15.4958C37.5742 15.4958 38.5645 16.486 38.5645 17.7076L38.5645 53.0964C38.5645 54.3179 37.5742 55.3082 36.3527 55.3082C35.1311 55.3082 34.1409 54.3179 34.1409 53.0964L34.1409 17.7076C34.1409 16.486 35.1311 15.4958 36.3527 15.4958Z" fill="url(#paint1_linear_1_5391)"/>
<path fill-rule="evenodd" clip-rule="evenodd" d="M51.0978 15.4958C52.3193 15.4958 53.3096 16.486 53.3096 17.7076L53.3096 53.0964C53.3096 54.318 52.3193 55.3082 51.0978 55.3082C49.8762 55.3082 48.886 54.318 48.886 53.0964L48.886 17.7076C48.886 16.486 49.8762 15.4958 51.0978 15.4958Z" fill="url(#paint2_linear_1_5391)"/>
<g filter="url(#filter0_b_1_5391)">
<circle cx="21.6073" cy="44.2493" r="5.89814" transform="rotate(90 21.6073 44.2493)" fill="#6AE092" fill-opacity="0.6"/>
<circle cx="21.6073" cy="44.2493" r="5.75068" transform="rotate(90 21.6073 44.2493)" stroke="url(#paint3_linear_1_5391)" stroke-width="0.294907"/>
</g>
<g filter="url(#filter1_b_1_5391)">
<circle cx="36.3527" cy="26.5548" r="5.89814" transform="rotate(90 36.3527 26.5548)" fill="#6AE092" fill-opacity="0.6"/>
<circle cx="36.3527" cy="26.5548" r="5.75068" transform="rotate(90 36.3527 26.5548)" stroke="url(#paint4_linear_1_5391)" stroke-width="0.294907"/>
</g>
<g filter="url(#filter2_b_1_5391)">
<circle cx="51.0978" cy="44.2493" r="5.89814" transform="rotate(90 51.0978 44.2493)" fill="#6AE092" fill-opacity="0.6"/>
<circle cx="51.0978" cy="44.2493" r="5.75068" transform="rotate(90 51.0978 44.2493)" stroke="url(#paint5_linear_1_5391)" stroke-width="0.294907"/>
</g>
<defs>
<filter id="filter0_b_1_5391" x="9.81098" y="32.453" width="23.5925" height="23.5925" filterUnits="userSpaceOnUse" color-interpolation-filters="sRGB">
<feFlood flood-opacity="0" result="BackgroundImageFix"/>
<feGaussianBlur in="BackgroundImageFix" stdDeviation="2.94907"/>
<feComposite in2="SourceAlpha" operator="in" result="effect1_backgroundBlur_1_5391"/>
<feBlend mode="normal" in="SourceGraphic" in2="effect1_backgroundBlur_1_5391" result="shape"/>
</filter>
<filter id="filter1_b_1_5391" x="24.5564" y="14.7585" width="23.5925" height="23.5925" filterUnits="userSpaceOnUse" color-interpolation-filters="sRGB">
<feFlood flood-opacity="0" result="BackgroundImageFix"/>
<feGaussianBlur in="BackgroundImageFix" stdDeviation="2.94907"/>
<feComposite in2="SourceAlpha" operator="in" result="effect1_backgroundBlur_1_5391"/>
<feBlend mode="normal" in="SourceGraphic" in2="effect1_backgroundBlur_1_5391" result="shape"/>
</filter>
<filter id="filter2_b_1_5391" x="39.3015" y="32.453" width="23.5925" height="23.5925" filterUnits="userSpaceOnUse" color-interpolation-filters="sRGB">
<feFlood flood-opacity="0" result="BackgroundImageFix"/>
<feGaussianBlur in="BackgroundImageFix" stdDeviation="2.94907"/>
<feComposite in2="SourceAlpha" operator="in" result="effect1_backgroundBlur_1_5391"/>
<feBlend mode="normal" in="SourceGraphic" in2="effect1_backgroundBlur_1_5391" result="shape"/>
</filter>
<linearGradient id="paint0_linear_1_5391" x1="22.8514" y1="26.9801" x2="12.8575" y2="30.2092" gradientUnits="userSpaceOnUse">
<stop stop-color="#75EDA1"/>
<stop offset="1" stop-color="#349256"/>
</linearGradient>
<linearGradient id="paint1_linear_1_5391" x1="37.5968" y1="26.9801" x2="27.6029" y2="30.2092" gradientUnits="userSpaceOnUse">
<stop stop-color="#75EDA1"/>
<stop offset="1" stop-color="#349256"/>
</linearGradient>
<linearGradient id="paint2_linear_1_5391" x1="52.3419" y1="26.9801" x2="42.348" y2="30.2092" gradientUnits="userSpaceOnUse">
<stop stop-color="#349256"/>
<stop offset="1" stop-color="#349256"/>
</linearGradient>
<linearGradient id="paint3_linear_1_5391" x1="14.2346" y1="53.0965" x2="26.0309" y2="39.8257" gradientUnits="userSpaceOnUse">
<stop stop-color="white"/>
<stop offset="1" stop-color="white" stop-opacity="0"/>
</linearGradient>
<linearGradient id="paint4_linear_1_5391" x1="28.98" y1="35.402" x2="40.7763" y2="22.1312" gradientUnits="userSpaceOnUse">
<stop stop-color="white"/>
<stop offset="1" stop-color="white" stop-opacity="0"/>
</linearGradient>
<linearGradient id="paint5_linear_1_5391" x1="43.7251" y1="53.0965" x2="55.5214" y2="39.8257" gradientUnits="userSpaceOnUse">
<stop stop-color="white"/>
<stop offset="1" stop-color="white" stop-opacity="0"/>
</linearGradient>
</defs>
</svg>
