<svg width="3176" height="1905" viewBox="0 0 3176 1905" fill="none" xmlns="http://www.w3.org/2000/svg">
<g opacity="0.25" clip-path="url(#clip0_1019_85)">
<path d="M130.747 770.689C135.838 906.386 253.782 1019.09 385.399 1052.44C517.016 1085.79 657.086 1053.87 782.357 1001.5C907.628 949.126 1023.76 876.822 1148.87 824.109C1273.99 771.396 1413.75 738.651 1545.64 770.878C1705.6 809.975 1827.3 936.214 1969.4 1019.45C2193.37 1150.7 2478.92 1171.02 2719.19 1072.79C2843.05 1022.17 2966.93 918.296 2960.9 784.572" stroke="white" stroke-width="0.85" stroke-linecap="round" stroke-linejoin="round"/>
<path d="M116.681 740.749C121.772 876.446 239.716 989.154 371.334 1022.5C502.951 1055.85 643.02 1023.93 768.292 971.557C893.563 919.186 1009.7 846.882 1134.81 794.169C1259.92 741.456 1399.68 708.711 1531.58 740.938C1691.54 780.035 1813.23 906.274 1955.33 989.515C2179.3 1120.76 2464.85 1141.08 2705.12 1042.85C2828.98 992.234 2952.86 888.356 2946.83 754.632" stroke="white" stroke-width="0.85" stroke-linecap="round" stroke-linejoin="round"/>
<path d="M102.61 710.777C107.701 846.474 225.646 959.182 357.263 992.531C488.88 1025.88 628.949 993.955 754.221 941.584C879.492 889.214 995.626 816.909 1120.74 764.196C1245.85 711.483 1385.61 678.738 1517.51 710.965C1677.47 750.062 1799.16 876.302 1941.26 959.543C2165.23 1090.79 2450.78 1111.1 2691.05 1012.88C2814.91 962.262 2938.79 858.383 2932.76 724.66" stroke="white" stroke-width="0.85" stroke-linecap="round" stroke-linejoin="round"/>
<path d="M88.5717 680.799C93.6631 816.496 211.607 929.204 343.224 962.553C474.842 995.902 614.911 963.978 740.182 911.607C865.453 859.236 981.587 786.932 1106.7 734.219C1231.81 681.506 1371.57 648.761 1503.47 680.988C1663.43 720.085 1785.12 846.324 1927.22 929.565C2151.19 1060.81 2436.74 1081.13 2677.01 982.903C2800.87 932.284 2924.75 828.406 2918.72 694.682" stroke="white" stroke-width="0.85" stroke-linecap="round" stroke-linejoin="round"/>
<path d="M74.5007 650.826C79.592 786.523 197.536 899.231 329.153 932.58C460.77 965.929 600.84 934.005 726.111 881.634C851.382 829.263 967.516 756.959 1092.63 704.246C1217.74 651.533 1357.5 618.788 1489.4 651.015C1649.36 690.112 1771.05 816.352 1913.15 899.592C2137.12 1030.84 2422.67 1051.15 2662.94 952.931C2786.8 902.312 2910.68 798.433 2904.65 664.709" stroke="white" stroke-width="0.85" stroke-linecap="round" stroke-linejoin="round"/>
<path d="M60.4355 620.887C65.5268 756.584 183.471 869.292 315.088 902.641C446.706 935.99 586.775 904.065 712.046 851.694C837.317 799.324 953.451 727.019 1078.56 674.306C1203.68 621.593 1343.44 588.848 1475.33 621.075C1635.29 660.172 1756.99 786.412 1899.08 869.653C2123.06 1000.9 2408.61 1021.21 2648.88 922.991C2772.73 872.372 2896.62 768.493 2890.58 634.77" stroke="white" stroke-width="0.85" stroke-linecap="round" stroke-linejoin="round"/>
<path d="M46.3645 590.914C51.4558 726.611 169.4 839.319 301.017 872.668C432.634 906.017 572.704 874.093 697.975 821.722C823.246 769.351 939.38 697.047 1064.49 644.334C1189.6 591.621 1329.37 558.876 1461.26 591.103C1621.22 630.2 1742.91 756.439 1885.01 839.68C2108.99 970.924 2394.53 991.242 2634.81 893.018C2758.66 842.399 2882.54 738.521 2876.51 604.797" stroke="white" stroke-width="0.85" stroke-linecap="round" stroke-linejoin="round"/>
<path d="M32.3261 560.936C37.4175 696.633 155.361 809.341 286.979 842.69C418.596 876.039 558.665 844.115 683.937 791.744C809.208 739.373 925.342 667.069 1050.45 614.356C1175.57 561.643 1315.33 528.898 1447.22 561.125C1607.18 600.222 1728.88 726.462 1870.98 809.702C2094.95 940.946 2380.5 961.264 2620.77 863.04C2744.63 812.422 2868.51 708.543 2862.48 574.819" stroke="white" stroke-width="0.85" stroke-linecap="round" stroke-linejoin="round"/>
<path d="M18.2551 530.964C23.3464 666.661 141.291 779.369 272.908 812.718C404.525 846.067 544.594 814.142 669.866 761.772C795.137 709.401 911.271 637.097 1036.38 584.383C1161.5 531.67 1301.26 498.926 1433.15 531.152C1593.11 570.25 1714.81 696.489 1856.9 779.73C2080.88 910.973 2366.42 931.291 2606.7 833.068C2730.55 782.449 2854.44 678.57 2848.4 544.847" stroke="white" stroke-width="0.85" stroke-linecap="round" stroke-linejoin="round"/>
<path d="M4.18404 500.991C9.27537 636.688 127.219 749.397 258.837 782.745C390.454 816.094 530.523 784.17 655.794 731.799C781.066 679.428 897.2 607.124 1022.31 554.411C1147.42 501.698 1287.19 468.953 1419.08 501.18C1579.04 540.277 1700.73 666.517 1842.83 749.757C2066.81 881.001 2352.35 901.319 2592.63 803.096C2716.48 752.477 2840.36 648.598 2834.33 514.874" stroke="white" stroke-width="0.85" stroke-linecap="round" stroke-linejoin="round"/>
</g>
<defs>
<clipPath id="clip0_1019_85">
<rect width="2977.92" height="1424.86" fill="white" transform="matrix(-0.985794 0.167962 0.167962 0.985794 2936.1 0.0323486)"/>
</clipPath>
</defs>
</svg>
