<svg width="1002" height="493" viewBox="0 0 1002 493" fill="none" xmlns="http://www.w3.org/2000/svg">
<g clip-path="url(#clip0_71_2)">
<path d="M554.59 359.44C547.24 348.13 539.6 336.78 533.8 319.64C527.26 300.31 525.7 281.8 523.29 282C521.95 282.11 521.04 287.97 519.73 296.48C519.23 299.71 518.95 302.39 517.95 306.95C517.24 310.19 516.55 312.6 516.22 313.71C515.95 314.61 515.08 317.54 513.6 321.43C512.78 323.59 511.95 325.53 510.28 329.41C508.68 333.15 508.35 333.79 507.66 335.69C505.93 340.43 505.9 342.07 505.91 342.82C505.93 343.5 506.02 344.87 507.19 348.11C508.3 351.19 509.56 353.63 510.3 354.96C510.61 355.51 510.84 355.93 510.91 356.04C513.4 360.33 521.31 374.55 521.89 375.58C523.73 378.87 536.09 399.83 557.64 420.97C575.98 438.96 595.14 451.34 611.65 459.83C614.25 448.34 622.11 439.74 627.36 429.9C585.88 406.74 563.87 373.73 554.59 359.44Z" fill="url(#paint0_linear_71_2)"/>
<path d="M385.59 70.28C388.59 72.47 391.63 74.67 394.72 76.87C398.38 79.48 402.01 82.04 405.62 84.55C409.72 87.8 412.98 90.66 415.31 92.79C415.52 92.98 417.79 95.14 422.33 99.47C425.93 102.9 427.1 104.02 428.79 105.82C430.38 107.5 431.49 108.8 433.24 110.83C435.35 113.27 436.83 115.09 438.81 117.51C441.73 121.09 443.3 123.02 445.38 125.75C447.45 128.48 448.93 130.55 450.17 132.32C453.39 136.92 455.79 140.36 458.32 144.44C463.2 152.3 466.26 158.92 467.27 161.05C469.2 165.11 475.79 182.93 477.96 188.97C481.5 198.81 482.32 199.07 482.71 199.07C484.59 199.08 485.24 193.14 489.84 177.09C493.89 162.97 494.29 160.9 495.19 158.68C496.12 156.36 496.79 153.95 497.61 151.59C498.73 148.35 499.28 146.5 499.17 144.02C499.11 142.57 498.82 141.3 498.39 139.97C496.48 134.09 492.42 129.46 491.71 128.64C486.83 123 488.74 122.82 481.69 112.64C478.69 108.31 474.83 103.81 467.1 94.8C461.5 88.28 456.46 82.77 451.19 77.35C450.53 76.67 449.91 76.04 449.28 75.42C445.32 71.47 441.09 67.24 435.02 62.06C427.69 55.79 421.89 51.76 412.63 45.24C404.84 39.76 398.13 35.4 393.19 32.28C394.24 44.95 387.43 57.61 385.59 70.28Z" fill="url(#paint1_linear_71_2)"/>
<path d="M724.46 0.690033C714.23 0.940033 674.92 2.56004 629.43 23.26C610.24 31.99 578.79 49.2 549.25 80.87C521.35 110.79 508.36 139.43 505.89 145.02C505.89 145.02 496.87 165.46 490.98 190.47C489.87 195.2 489.17 198.93 489.17 198.93C488.75 201.19 488.77 200.49 488 204.73C487.5 207.47 487.28 208.9 486.63 212.5C486.21 214.83 486.01 216.35 485.87 217.14C485.61 218.67 485.45 219.79 485.16 221.67C484.8 223.99 484.58 225.7 484.52 226.14C484.44 226.72 484.3 227.82 484.14 229.28C483.86 231.76 483.77 232.89 483.39 236.89C483.19 239.04 483.1 240.61 482.86 242.99C482.64 245.19 482.44 247.02 482.31 248.29C482.19 249.47 482.01 251.22 481.8 253.34C481.55 256.01 481.34 257.78 481.17 259.75C480.77 264.49 480.52 267.42 480.16 270.59C479.72 274.46 479.26 277.35 478.92 279.45C478.92 279.45 477.37 289.18 475.25 297.71C470.71 316.02 459.77 337.45 459.77 337.45C452.72 353.04 439.45 377.12 415.35 399.61C412.23 402.52 399.12 414.38 380.56 425.37C318.97 461.82 258.05 454.49 242.17 452.1C225.86 449.64 163.16 438.22 114.47 382.01C102.9 368.66 70.89 328.26 64.58 266.78C59.56 217.86 73.28 179.7 81.21 161.65C88.9 144.14 107.59 108.13 147.14 78.5C190.76 45.81 235.3 39.1901 255.24 37.5201C275.27 35.8401 316.26 35.3 360.37 55.93C363.33 57.32 372.98 61.92 385.6 70.29C387.44 57.62 394.25 44.95 393.19 32.29C367.03 17.21 330.96 4.30001 290.87 1.29001C215.9 -4.32999 160.58 27.0801 140.6 39.9001C124.37 50.3101 74.34 85.09 46.16 152.16C26.95 197.89 26.71 237.64 27.15 252.54C27.57 266.74 30.48 321.78 67.54 378.46C105.44 436.44 156.72 461.95 176.23 470.52C193.73 478.21 252.69 503.1 327.1 486.56C327.1 486.56 413.62 467.32 469.06 392.71C486.42 369.34 501.59 335.43 506.27 319.73C506.97 317.39 507.66 314.9 507.66 314.9C512.92 295.66 515.98 273.92 515.98 273.92C517.43 263.6 517.2 261.8 519.54 241.25C521.89 220.7 523.06 210.43 524.89 202.05C528.78 184.22 534.46 171.37 538.55 162.25C538.55 162.25 552.56 131.04 573 107.01C598.73 76.77 654.79 36.64 729.21 36.33C810.33 35.99 862.94 83.35 874.73 94.54C883.49 102.86 941.67 159.9 940.66 247.19C940.06 299.04 918.86 336.53 910.37 351.13C901.91 365.68 881.6 399.69 840.28 425.37C779.29 463.29 717.04 455.43 697.73 452.69C684.76 450.85 658.43 446.88 628.83 430.71C628.33 430.44 627.85 430.16 627.35 429.88C622.1 439.73 614.24 448.32 611.64 459.81C632.84 471.43 649.02 477.03 649.02 477.03C674.21 485.76 739.33 503.66 813.55 476.44C882.74 451.06 918.69 401.56 929.97 385.56C941.54 369.15 975.34 319.83 975.7 251.92C975.87 221.32 969.19 197.16 965.01 182.43C959.54 163.16 949.55 128.97 922.24 93.93C915.42 85.17 884.56 46.87 828.39 22.06C779.01 0.250029 736.18 0.400033 724.46 0.690033Z" fill="url(#paint2_linear_71_2)"/>
<path d="M469.38 246.36C469.38 138.427 381.883 50.93 273.95 50.93C166.017 50.93 78.5199 138.427 78.5199 246.36C78.5199 354.293 166.017 441.79 273.95 441.79C381.883 441.79 469.38 354.293 469.38 246.36Z" fill="url(#paint3_linear_71_2)"/>
<path d="M922.68 244.48C922.68 137.585 835.183 50.93 727.25 50.93C619.317 50.93 531.82 137.585 531.82 244.48C531.82 351.375 619.317 438.03 727.25 438.03C835.183 438.03 922.68 351.375 922.68 244.48Z" fill="url(#paint4_linear_71_2)"/>
</g>
<defs>
<linearGradient id="paint0_linear_71_2" x1="502.626" y1="354.731" x2="637.696" y2="388.408" gradientUnits="userSpaceOnUse">
<stop offset="0.0754" stop-color="#3E674E" stop-opacity="0"/>
<stop offset="0.5279" stop-color="#284532" stop-opacity="0.6788"/>
<stop offset="0.9078" stop-color="#1F3828"/>
</linearGradient>
<linearGradient id="paint1_linear_71_2" x1="502.767" y1="131.843" x2="376.228" y2="100.293" gradientUnits="userSpaceOnUse">
<stop offset="0.0917" stop-color="#406B51" stop-opacity="0"/>
<stop offset="0.5848" stop-color="#243F2D" stop-opacity="0.8647"/>
<stop offset="0.8156" stop-color="#21392A"/>
</linearGradient>
<linearGradient id="paint2_linear_71_2" x1="884.737" y1="24.676" x2="118.321" y2="467.166" gradientUnits="userSpaceOnUse">
<stop stop-color="#406B51"/>
<stop offset="0.6453" stop-color="#172A1E"/>
<stop offset="0.9637" stop-color="#15271C"/>
<stop offset="1" stop-color="#13241A"/>
</linearGradient>
<linearGradient id="paint3_linear_71_2" x1="412.141" y1="384.554" x2="135.757" y2="108.17" gradientUnits="userSpaceOnUse">
<stop offset="0.7793" stop-color="#3E674E" stop-opacity="0"/>
<stop offset="1" stop-color="#1F3828" stop-opacity="0.4"/>
</linearGradient>
<linearGradient id="paint4_linear_71_2" x1="558.378" y1="146.98" x2="896.123" y2="341.977" gradientUnits="userSpaceOnUse">
<stop offset="0.7793" stop-color="#3E674E" stop-opacity="0"/>
<stop offset="1" stop-color="#1F3828" stop-opacity="0.4"/>
</linearGradient>
<clipPath id="clip0_71_2">
<rect width="492" height="1001" fill="white" transform="translate(0.5 492.5) rotate(-90)"/>
</clipPath>
</defs>
</svg>
